<svg xmlns="http://www.w3.org/2000/svg"  viewBox="0 0 100 100" width="100px" height="100px"><path d="M71.5,87c-3.584,0-6.5-2.916-6.5-6.5V64.571l-9.1,6.825c-1.119,0.839-2.504,1.3-3.9,1.3s-2.781-0.461-3.898-1.298 L39,64.571V80.5c0,3.584-2.916,6.5-6.5,6.5H19.857C13.319,87,8,81.681,8,75.143v-44.09c0-7.85,6.387-14.236,14.236-14.236 c3.059,0,6.092,1.011,8.539,2.846L52,35.723L73.2,19.68c2.471-1.852,5.505-2.863,8.563-2.863c7.85,0,14.236,6.386,14.236,14.236 v44.09C96,81.681,90.681,87,84.143,87H71.5z" opacity=".35"/><path fill="#f2f2f2" d="M69.5,85c-3.584,0-6.5-2.916-6.5-6.5V62.571l-9.1,6.825c-1.119,0.839-2.504,1.3-3.9,1.3 s-2.781-0.461-3.898-1.298L37,62.571V78.5c0,3.584-2.916,6.5-6.5,6.5H17.857C11.319,85,6,79.681,6,73.143v-44.09 c0-7.85,6.387-14.236,14.236-14.236c3.059,0,6.092,1.011,8.539,2.846L50,33.723L71.2,17.68c2.471-1.852,5.505-2.863,8.563-2.863 c7.85,0,14.236,6.386,14.236,14.236v44.09C94,79.681,88.681,85,82.143,85H69.5z"/><path fill="#96c362" d="M87.5,36l-9,4.911l-9,8.482V78.5h12.643c2.959,0,5.357-2.398,5.357-5.357V36z"/><path fill="#70bfff" d="M12.5,36l6.505,3.054L30.5,49.393V78.5H17.857c-2.959,0-5.357-2.398-5.357-5.357V36z"/><polygon fill="#ff7575" points="69.643,27.143 50,41.875 30.357,27.143 28.571,37.5 30.357,49.464 50,64.196 69.643,49.464 71.429,37.5"/><path fill="#f4665c" d="M12.5,29.053v7.024l18,13.5v-22.5l-5.623-4.214c-1.339-1.004-2.966-1.546-4.64-1.546l0,0 C15.963,21.316,12.5,24.78,12.5,29.053z"/><path fill="#ffc571" d="M87.5,29.053v7.024l-18,13.5v-22.5l5.623-4.214c1.339-1.004,2.966-1.546,4.64-1.546l0,0 C84.037,21.316,87.5,24.78,87.5,29.053z"/><path fill="#40396e" d="M82.143,80H69.5c-0.828,0-1.5-0.671-1.5-1.5V52.571L50.9,65.396c-0.533,0.399-1.268,0.399-1.801,0 L32,52.571V78.5c0,0.829-0.672,1.5-1.5,1.5H17.857C14.076,80,11,76.924,11,73.143v-44.09c0-5.093,4.144-9.236,9.236-9.236 c1.984,0,3.952,0.656,5.54,1.846L50,39.994l24.218-18.327c1.594-1.194,3.562-1.85,5.546-1.85c5.093,0,9.236,4.144,9.236,9.236 v44.09C89,76.924,85.924,80,82.143,80z M71,77h11.143C84.27,77,86,75.27,86,73.143v-44.09c0-3.438-2.798-6.236-6.236-6.236 c-1.34,0-2.669,0.443-3.741,1.247L50.905,43.071c-0.535,0.405-1.275,0.405-1.811,0L23.972,24.059 c-1.066-0.8-2.396-1.243-3.735-1.243c-3.438,0-6.236,2.798-6.236,6.236v44.09C14,75.27,15.73,77,17.857,77H29V49.571 c0-0.568,0.321-1.087,0.829-1.342c0.508-0.253,1.117-0.199,1.571,0.142L50,62.321l18.6-13.95c0.454-0.341,1.063-0.396,1.571-0.142 C70.679,48.484,71,49.003,71,49.571V77z"/></svg>
